<svg width="35" height="23" viewBox="0 0 35 23" fill="none" xmlns="http://www.w3.org/2000/svg">
<path d="M19.7064 17.0072C19.2971 17.8343 18.7636 18.3524 18.1926 18.4768C17.6217 18.6013 17.0471 18.3249 16.5624 17.6927L15.6086 20.8025C16.435 21.8751 17.4135 22.3433 18.3857 22.1314C19.3579 21.9195 20.2668 21.0398 20.9652 19.6348L19.7064 17.0072ZM17.9881 4.3393C17.2003 4.31359 16.4239 4.72855 15.7421 5.53973C15.0603 6.3509 14.4988 7.52773 14.1177 8.94414C13.7367 10.3605 13.5505 11.9632 13.579 13.5803C13.6075 15.1975 13.8497 16.7682 14.2797 18.1243L22.1457 11.2191C21.9243 9.28565 21.3952 7.55915 20.6421 6.31299C19.8891 5.06684 18.9551 4.37227 17.9881 4.3393ZM15.3819 13.8085C15.3224 12.691 15.4394 11.5639 15.7157 10.5934C15.9919 9.62288 16.4127 8.86043 16.916 8.41853C17.4193 7.97662 17.9784 7.87868 18.5109 8.13915C19.0434 8.39962 19.521 9.00471 19.8732 9.86513L15.3819 13.8085ZM24.6159 0.323975V17.5404L26.0704 18.7801L25.3844 22.165L23.9422 20.9379C23.6518 20.6827 23.4051 20.2555 23.2335 19.7109C23.0418 19.0769 22.9451 18.3413 22.9553 17.5954V0.323975H24.6159ZM11.9496 0.323975V17.5404L13.3917 18.7801L12.7057 22.165L11.2635 20.9379C10.9829 20.6808 10.7445 20.2619 10.5775 19.7321C10.3851 19.0986 10.2877 18.3629 10.2973 17.6165V0.323975H11.9496Z" fill="#EEEEEE"/>
<path d="M31.7734 8.52383C32.0757 8.82321 32.3462 9.24196 32.5697 9.75614C32.7931 10.2703 32.965 10.8699 33.0756 11.5206C33.1862 12.1712 33.2333 12.8603 33.2142 13.5483C33.195 14.2364 33.1101 14.9099 32.9642 15.5306L34.5733 17.1172C35.0088 15.2517 35.115 13.1334 34.8737 11.1247C34.6325 9.11614 34.0587 7.34225 33.2507 6.1068C32.4427 4.87135 31.4507 4.25119 30.4445 4.3525C29.4384 4.45381 28.4806 5.27029 27.7354 6.66214L28.9385 9.37428C29.3154 8.66635 29.787 8.20687 30.2924 8.05526C30.7978 7.90364 31.3137 8.06687 31.7734 8.52383Z" fill="#9E9E9E"/>
<path d="M29.5581 17.9888C28.9474 17.3848 28.4783 16.3077 28.2539 14.994C28.0295 13.6803 28.068 12.2374 28.3611 10.9821L26.7521 9.39123C26.3209 11.2543 26.2174 13.3666 26.4593 15.3687C26.7013 17.3708 27.2736 19.1388 28.0789 20.3716C28.8843 21.6044 29.8727 22.2258 30.8761 22.13C31.8794 22.0343 32.8356 21.2272 33.5818 19.8463L32.3786 17.1384C32.0027 17.8392 31.5337 18.2944 31.0314 18.4458C30.5291 18.5973 30.0163 18.4382 29.5581 17.9888ZM8.65297 18.2385V13.2542C8.65297 11.4969 8.39923 9.77899 7.92383 8.31781C7.44843 6.85662 6.77272 5.71777 5.98216 5.04526C5.1916 4.37275 4.32169 4.19679 3.48243 4.53963C2.64318 4.88247 1.87227 5.72872 1.2672 6.97136C0.66213 8.21399 0.250073 9.7972 0.0831342 11.5208C-0.0838042 13.2444 0.00187458 15.0309 0.329336 16.6545C0.656798 18.2781 1.21133 19.6658 1.92282 20.6421C2.63431 21.6185 3.47079 22.1396 4.32649 22.1396C4.99724 22.1397 5.65882 21.8196 6.25898 21.2045L5.56263 17.8619C5.17274 18.3047 4.73333 18.5307 4.28785 18.5176C3.84238 18.5045 3.40629 18.2528 3.02272 17.7874C2.63916 17.3219 2.32142 16.6588 2.10093 15.8638C1.88045 15.0687 1.76487 14.1692 1.76562 13.2542C1.76329 12.3947 1.8645 11.5473 2.06023 10.7875C2.23251 10.1245 2.47183 9.54473 2.76213 9.08719C3.05244 8.62964 3.38702 8.30485 3.74344 8.13459C3.93248 8.04264 4.12604 7.99579 4.32031 7.99496C5.00023 7.99384 5.65255 8.54717 6.1339 9.53336C6.61526 10.5195 6.88626 11.8579 6.88735 13.2542V18.1962C6.87713 18.9421 6.97385 19.6777 7.16549 20.3117C7.33828 20.8542 7.58467 21.2807 7.87421 21.5387L8.68594 22.1988L9.37405 18.8139L8.65297 18.2385Z" fill="#EEEEEE"/>
</svg>
