<svg width="40" height="23" viewBox="0 0 40 23" fill="none" xmlns="http://www.w3.org/2000/svg">
<path fill-rule="evenodd" clip-rule="evenodd" d="M1.00462 22.0417H0.879213C0.879213 22.0052 0.847805 21.9504 0.847805 21.9319C0.847805 21.9138 0.847805 21.8773 0.753579 21.8773H0.565127V22.0417H0.470901V21.6578H0.753579C0.879213 21.6578 0.973212 21.6762 0.973212 21.7491C0.973212 21.804 0.941803 21.8224 0.910622 21.8405C0.942031 21.8589 0.973212 21.8772 0.973212 21.9138V21.9868C0.973212 22.0052 0.973212 22.0052 1.00462 22.0052V22.0417ZM0.879213 21.7675C0.879213 21.7127 0.816396 21.7127 0.784988 21.7127H0.565127V21.8224H0.753579C0.816396 21.8224 0.879213 21.804 0.879213 21.7675V21.7675ZM1.41293 21.8406C1.41293 21.6213 1.09907 21.4382 0.690762 21.4382C0.314086 21.4382 0 21.6213 0 21.8406C0 22.0783 0.314086 22.2614 0.690762 22.2614C1.09885 22.2612 1.41293 22.0783 1.41293 21.8406ZM1.31871 21.8406C1.31871 22.0418 1.03626 22.188 0.690762 22.188C0.345267 22.188 0.0942258 22.0417 0.0942258 21.8406C0.0942258 21.6578 0.345495 21.4931 0.690762 21.4931C1.03603 21.4931 1.31871 21.6578 1.31871 21.8406ZM40 14.4525C40 15.0012 39.4035 15.257 38.3358 15.257H36.2954V14.7083H38.3358C38.5243 14.7083 38.6813 14.6901 38.7443 14.6537C38.8069 14.6169 38.8697 14.562 38.8697 14.489C38.8697 14.4157 38.8072 14.3427 38.7443 14.3062C38.6813 14.2695 38.5559 14.2513 38.3674 14.2513C37.3945 14.2329 36.1697 14.2695 36.1697 13.4649C36.1697 13.099 36.5778 12.6967 37.6767 12.6967H39.7801V13.2454H37.8335C37.6455 13.2454 37.5196 13.2454 37.4254 13.2819C37.3312 13.3367 37.2686 13.3916 37.2686 13.4831C37.2686 13.5746 37.3628 13.6294 37.4882 13.6662C37.6141 13.6843 37.7397 13.7026 37.8968 13.7026H38.4617C39.0582 13.7026 39.4351 13.7757 39.6864 13.9039C39.8744 14.0318 40 14.1966 40 14.4525V14.4525ZM35.573 13.9039C35.3217 13.7757 34.9448 13.7026 34.3483 13.7026H33.7834C33.6266 13.7026 33.5007 13.6842 33.3753 13.6662C33.2494 13.6294 33.1557 13.5746 33.1557 13.4831C33.1557 13.3916 33.1868 13.3367 33.3125 13.2819C33.4067 13.2454 33.5321 13.2454 33.7206 13.2454H35.6672V12.6967H33.5637C32.4333 12.6967 32.0564 13.099 32.0564 13.4649C32.0564 14.2693 33.2811 14.2329 34.2545 14.2513C34.4425 14.2513 34.5684 14.2695 34.6309 14.3062C34.6935 14.3427 34.7568 14.4157 34.7568 14.489C34.7568 14.562 34.6938 14.6169 34.6309 14.6537C34.5367 14.6901 34.4113 14.7083 34.2229 14.7083H32.182V15.257H34.2229C35.2901 15.257 35.8868 15.0011 35.8868 14.4525C35.8868 14.1966 35.7614 14.0318 35.573 13.9039V13.9039ZM31.554 14.7268H29.0741V14.2147H31.4915V13.7029H29.0741V13.2272H31.554V12.697H28.0379V15.2571H31.554V14.7268ZM26.9074 12.825C26.5619 12.7153 26.1538 12.6968 25.6201 12.6968H23.2028V15.257H24.27V14.3244H25.4005C25.7769 14.3244 25.997 14.3428 26.154 14.4341C26.3425 14.562 26.3425 14.7816 26.3425 14.9462V15.257H27.3783V14.7632C27.3783 14.5255 27.3471 14.4157 27.2215 14.2878C27.1273 14.2145 26.9393 14.1231 26.688 14.0682C26.9702 14.0136 27.4416 13.7941 27.4416 13.3916C27.4413 13.0992 27.2529 12.9345 26.9074 12.825V12.825ZM20.942 12.6968H17.5824L16.2323 13.5381L14.945 12.6968H10.7065V15.257H14.8824L16.2326 14.4157L17.5199 15.257H19.5607V14.3977H20.8794C21.7898 14.3977 22.7007 14.2513 22.7007 13.5381C22.7005 12.8432 21.7584 12.6968 20.942 12.6968ZM26.0596 13.7576C25.9028 13.7941 25.7457 13.7941 25.5573 13.7941L24.27 13.8125V13.2271H25.5573C25.7457 13.2271 25.9342 13.2271 26.0596 13.282C26.1854 13.3187 26.2792 13.3918 26.2792 13.5015C26.2792 13.6113 26.1854 13.7028 26.0596 13.7576V13.7576ZM20.942 13.8856H19.5605V13.2271H20.942C21.3189 13.2271 21.57 13.3187 21.57 13.5381C21.57 13.7576 21.3187 13.8856 20.942 13.8856ZM16.8917 13.9769L18.5243 12.9713V15.0377L16.8917 13.9769ZM14.3485 14.7268H11.7425V14.2147H14.0658V13.7029H11.7425V13.2272H14.3799L15.5416 13.977L14.3485 14.7268V14.7268ZM37.0799 10.8498H35.573L33.5949 8.92958V10.8498H31.4603L31.0517 10.2828H28.854L28.446 10.8498H27.2212C26.7189 10.8498 26.0596 10.7766 25.6831 10.5571C25.3376 10.3377 25.1492 10.0451 25.1492 9.5879C25.1492 9.20386 25.2434 8.8564 25.7141 8.58213C26.028 8.38089 26.5933 8.28955 27.3152 8.28955H28.3199V8.83824H27.3152C26.9388 8.83824 26.7187 8.87483 26.4991 8.9846C26.3106 9.09436 26.2164 9.29546 26.2164 9.56974C26.2164 9.84402 26.3106 10.0453 26.4991 10.1733C26.6559 10.2647 26.9388 10.3012 27.221 10.3012H27.6922L29.1991 8.28968H30.7691L32.5273 10.7036V8.28955H34.16L36.0125 10.0634V8.28955H37.0797V10.8498H37.0799V10.8498ZM24.6155 8.28955H23.5483V10.8498H24.6155V8.28955V8.28955ZM22.3861 8.39932C22.0407 8.28955 21.6642 8.28955 21.1305 8.28955H18.7127V10.8498H19.7487V9.91707H20.879C21.2559 9.91707 21.5072 9.93536 21.664 10.0268C21.8524 10.1549 21.8208 10.3744 21.8208 10.5206V10.8498H22.888V10.3377C22.888 10.1183 22.8568 10.0085 22.7 9.88048C22.6058 9.8073 22.4173 9.71583 22.1977 9.66108C22.4799 9.5879 22.9513 9.3868 22.9513 8.98446C22.9515 8.69189 22.7314 8.52724 22.3861 8.39932ZM17.9591 10.3195H15.5102V9.80743H17.9277V9.27717H15.5102V8.81995H17.9591V8.28968H14.4427V10.8499H17.9591V10.3195ZM13.6577 8.28955H11.9309L10.6436 10.0268L9.26213 8.28955H7.56674V10.7034L5.77714 8.28955H4.20739L2.32355 10.8498H3.45381L3.86189 10.2828H6.05959L6.46767 10.8498H8.60277V8.83824L10.1411 10.8498H11.0515L12.5901 8.83824V10.8498H13.6575V8.28955H13.6577ZM30.6753 9.73426L29.9529 8.72848L29.2309 9.73426H30.6753ZM21.57 9.33205C21.4132 9.38693 21.2561 9.38693 21.0363 9.38693H19.7487V8.82008H21.036C21.2245 8.82008 21.4439 8.82008 21.5697 8.85667C21.6952 8.91155 21.7582 8.98473 21.7582 9.09436C21.7582 9.20399 21.6954 9.29533 21.57 9.33205V9.33205ZM4.23857 9.73426L4.96074 8.72848L5.68291 9.73426H4.23857V9.73426ZM39.749 0.261353H2.29192V9.47827L3.57922 7.77758H6.31063L6.68753 8.19821V7.77758H9.89007L10.6122 8.69189L11.303 7.77758H21.5072C21.9778 7.77758 22.3859 7.83246 22.7002 7.97868V7.77758H25.4945V7.97868C25.9651 7.83233 26.5617 7.77758 27.2527 7.77758H31.3028L31.6797 8.19821V7.77758H34.6624L35.1021 8.19821V7.77758H38.0217V11.3619H35.0707L34.5058 10.8133V11.3619H30.8321L30.424 10.7768H29.5132L29.1051 11.3619H27.1901C26.4365 11.3619 25.8711 11.2521 25.4947 11.1425V11.3619H20.942V10.5389C20.942 10.4292 20.9106 10.4109 20.785 10.4109H20.6282V11.3618H11.8367V10.9045L11.5229 11.3618H9.67044L9.35658 10.9228V11.3618H5.80854L5.43187 10.7766H4.52125L4.11316 11.3618H2.29192V22.1697H39.749V15.6044C39.3409 15.7142 38.7755 15.7691 38.2104 15.7691H35.4788V15.5495C35.1649 15.696 34.5995 15.7691 34.0661 15.7691H25.4631V14.9462C25.4631 14.8365 25.4319 14.8365 25.2746 14.8365H25.1178V15.7691H22.2919V14.7999C21.8212 14.9278 21.2873 14.9278 20.8164 14.9278H20.5023V15.7691H17.0487L16.2326 15.2204L15.3222 15.7691H9.76444V12.1849H15.4159L16.2323 12.7333L17.1115 12.1849H20.9106C21.3499 12.1849 22.0723 12.2213 22.3861 12.4041V12.1849H25.7769C26.1224 12.1849 26.782 12.2213 27.2212 12.4041V12.1849H32.339V12.4043C32.6217 12.2579 33.1557 12.185 33.6263 12.185H36.4834V12.4043C36.7977 12.2763 37.237 12.185 37.8023 12.185H39.749V0.261353V0.261353Z" fill="#EEEEEE"/>
</svg>
