<svg width="36" height="23" viewBox="0 0 36 23" fill="none" xmlns="http://www.w3.org/2000/svg">
<path fill-rule="evenodd" clip-rule="evenodd" d="M14.5858 16.3591L10.9858 14.8465L28.1032 7.61801L17.5355 3.16746L12.5652 5.26184L16.4206 6.86171L7.52516 10.585L0.0696777 7.50166L18.0232 0.0113525L35.8374 7.47257L14.5858 16.3591ZM21.3445 6.10541L24.9445 7.61801L7.8271 14.8465L18.4181 19.2971L23.3884 17.2027L19.5329 15.6174L28.4516 11.894L35.9071 14.9774L17.9071 22.4532L0.139355 15.0211L21.3445 6.10541ZM7.38581 19.4861L3.71613 17.9154L0 19.4861L0.0464518 22.5114L7.38581 19.4861ZM28.7071 3.09474L32.4 4.66552L36 3.16746V0.0695296L28.7071 3.09474Z" fill="#EEEEEE"/>
</svg>
