<svg width="37" height="22" viewBox="0 0 37 22" fill="none" xmlns="http://www.w3.org/2000/svg">
<path fill-rule="evenodd" clip-rule="evenodd" d="M11.2456 0.82373C17.397 0.82373 22.4297 5.50359 22.4297 11.2614C22.4297 16.991 17.3967 21.671 11.2456 21.671C5.06347 21.671 0.0305176 16.991 0.0305176 11.2614C0.0305176 5.50359 5.06347 0.82373 11.2456 0.82373V0.82373Z" fill="#EEEEEE"/>
<path fill-rule="evenodd" clip-rule="evenodd" d="M11.4013 0.65332C5.09472 0.65332 0 5.38999 0 11.2612C0 17.1042 5.06372 21.8411 11.4013 21.8411V21.8694H25.5987C31.967 21.8694 37 17.1325 37 11.2612C37 5.38999 31.8428 0.65332 25.4745 0.65332C25.5679 0.681622 11.4945 0.65332 11.4013 0.65332V0.65332ZM11.4013 1.0789C17.4904 1.0789 22.3367 5.61703 22.3367 11.2612C22.3367 16.9057 17.4902 21.444 11.4013 21.444C5.34338 21.444 0.434873 16.9057 0.434873 11.2612C0.434873 5.61703 5.34338 1.0789 11.4013 1.0789ZM13.3272 18.2388V4.28391C16.6824 5.07804 19.1365 7.85769 19.1365 11.2612C19.1367 14.665 16.6827 17.473 13.3272 18.2388ZM9.50612 4.25561V18.2669C6.1199 17.5013 3.69665 14.6933 3.69665 11.2612C3.69665 7.85769 6.1199 5.02123 9.50612 4.25561V4.25561Z" fill="#9E9E9E"/>
</svg>
