<svg width="36" height="23" viewBox="0 0 36 23" fill="none" xmlns="http://www.w3.org/2000/svg">
<path d="M5.61141 4.98034C6.01674 4.75995 6.44908 4.64241 6.89764 4.64241C8.86121 4.64241 10.5005 6.9168 10.8752 9.94051L13.6584 9.01489C13.0207 3.87841 10.2357 0.0113525 6.89764 0.0113525C6.13203 0.0113525 5.39884 0.214108 4.71069 0.590235L5.61141 4.98034Z" fill="#7C7C8A"/>
<path d="M2.32746 19.6904L4.20996 16.22C3.37049 15.0064 2.84087 13.2345 2.84087 11.2599C2.84087 9.28814 3.37049 7.51623 4.20996 6.30557L2.32746 2.83228C0.90072 4.8951 0 7.90705 0 11.2599C0 14.6156 0.90072 17.6276 2.32746 19.6904" fill="#9E9E9E"/>
<path d="M10.8752 12.5881C10.4987 15.6089 8.86121 17.8804 6.89944 17.8804C6.44908 17.8804 6.01494 17.7628 5.61141 17.5395L4.71069 21.9355C5.39884 22.3087 6.13383 22.5114 6.89944 22.5114C10.2339 22.5114 13.0171 18.6502 13.6584 13.5196L10.8752 12.5881Z" fill="#EEEEEE"/>
<path d="M16.0923 16.364C16.0004 16.123 15.8779 15.7381 15.8023 15.4531C15.3609 13.784 15.3411 12.0562 15.7122 10.3989C16.1211 8.57995 16.9029 7.19004 17.9136 6.47893C19.1836 5.58856 20.5869 5.76194 21.8047 6.94027C22.5775 7.66314 23.1251 8.77976 23.5413 10.3607C23.5935 10.5634 23.6403 10.7779 23.6872 10.9631L16.0923 16.364ZM18.6287 9.16177C17.7262 9.79354 17.2614 11.1746 17.3587 12.7908L21.1778 10.108C20.5202 8.85029 19.6664 8.43302 18.6287 9.16177V9.16177ZM21.6533 14.9976C21.6515 14.9976 21.6515 15.0005 21.6515 15.0005L21.5723 14.9124C21.3435 15.5148 20.9886 16.0055 20.5401 16.3229C19.6862 16.9282 18.8953 16.7725 18.3261 15.9585L18.2738 16.0878C18.2738 16.0878 18.2738 16.0848 18.272 16.0848L17.3029 18.4503C17.5443 18.7236 17.8019 18.9528 18.0721 19.1379C19.1421 19.8637 20.2374 19.8285 21.3165 19.0645C22.0965 18.512 22.709 17.6716 23.1269 16.605L21.6533 14.9976ZM26.3407 2.99976V16.1466L27.5945 16.9752L26.8829 19.6845L25.4994 18.7442C25.1896 18.5238 24.977 18.1888 24.8185 17.8097C24.6654 17.4248 24.5519 16.8929 24.5519 16.1818V2.99976H26.3407ZM29.5869 12.7996C29.5869 11.6801 29.8913 10.6751 30.3705 9.99336L29.0843 7.65432C28.2124 8.912 27.6629 10.7486 27.6629 12.7937C27.6611 14.8419 28.2106 16.6814 29.0807 17.939L30.3651 15.6C29.8877 14.9153 29.5869 13.9162 29.5869 12.7996V12.7996ZM31.8711 16.5286C31.6189 16.5286 31.3739 16.458 31.1469 16.3346L30.5326 19.3113C30.9524 19.5405 31.4009 19.6669 31.8693 19.6669C33.9049 19.6698 35.6037 17.3131 35.9982 14.1836L34.1103 13.5548C33.8959 15.2562 32.9754 16.5315 31.8711 16.5286V16.5286ZM31.8765 5.93237C31.4099 5.93237 30.9614 6.05579 30.5416 6.28205L31.1505 9.26168C31.3793 9.13826 31.6225 9.07067 31.8747 9.07067C32.9808 9.07361 33.9031 10.3548 34.1121 12.0591L36 11.4362C35.6127 8.30079 33.9139 5.93531 31.8765 5.93237V5.93237Z" fill="white"/>
</svg>
