<svg width="36" height="23" viewBox="0 0 36 23" fill="none" xmlns="http://www.w3.org/2000/svg">
<path d="M7.77716 2.88876C7.96605 2.54891 8.20934 1.00117 7.9314 0.356784C7.84337 0.152787 7.69615 0.0935774 7.49075 0.184292C7.30024 0.268304 7.19066 0.437446 7.11623 0.702217C6.99664 1.12786 6.88688 2.41195 7.07218 2.88898C7.25268 3.35328 7.65697 3.10482 7.77716 2.88876V2.88876ZM5.08931 0.356784C4.95397 2.65035 4.80153 4.89924 4.64866 7.147C3.66719 7.17404 2.6651 7.27347 1.71845 7.08936C1.89724 4.8903 2.02547 2.55897 2.20315 0.356784H1.14563C0.767091 5.96637 0.422683 11.6655 0 17.1598H1.07959C1.24889 14.3416 1.40732 11.4944 1.63034 8.81585C2.55081 8.75663 3.65401 8.65341 4.53856 8.87349C4.35618 11.6582 4.13581 14.343 3.96574 17.1598H5.04533C5.39231 11.4674 5.75768 5.82359 6.19105 0.356784H5.08931V0.356784ZM20.3573 5.1906C19.5173 4.30445 18.8569 5.80192 18.5507 7.20465C18.6202 6.58059 18.6488 5.84973 18.7051 5.1906H17.8678C17.6631 9.33645 17.3615 13.2287 17.0747 17.1598H18.0222C18.1549 14.8265 18.2122 11.681 18.5068 9.44884C18.7422 7.66515 19.3583 6.14556 20.2473 6.97451C20.2596 6.31649 20.3317 5.81421 20.3573 5.1906V5.1906ZM20.886 14.3403C20.7986 13.7509 20.7761 12.778 20.798 12.0382C20.8469 10.3757 21.0789 8.35132 21.4369 7.43479C21.9309 6.16992 22.9062 6.37928 23.6842 7.08958C23.7082 6.40475 23.7609 5.79387 23.7944 5.13317C22.5185 4.58888 21.3079 4.92761 20.666 6.68695C20.0374 8.40919 19.6256 12.3676 19.9167 14.8582C20.2576 17.7727 21.7859 17.9311 23.0233 16.8149C23.078 16.229 23.107 15.5759 23.1554 14.9735C22.4792 15.8907 21.1865 16.3675 20.886 14.3403V14.3403ZM31.5274 5.24802C30.6901 4.15452 29.993 5.98938 29.7208 7.08936C29.7983 6.52496 29.8028 5.76907 29.875 5.19037H29.0378C28.8121 9.30025 28.54 13.289 28.2228 17.1596H29.1922C29.1982 15.5732 29.3176 14.3997 29.4124 12.8442C29.6149 9.52213 29.9125 5.87923 31.3954 6.97429C31.4444 6.41257 31.4649 5.77533 31.5274 5.24802ZM6.80775 5.1906C6.78209 5.20021 6.7838 5.28154 6.78568 5.36309C6.57695 9.44057 6.29439 13.3257 5.99259 17.1596H6.93992C7.16756 13.0546 7.4283 9.0366 7.75509 5.19037L6.80775 5.1906V5.1906ZM15.1357 4.96046C14.4512 5.09832 13.8726 5.61267 13.4614 6.74437C12.957 8.13213 12.5486 11.2006 12.6683 13.9951C12.839 17.9816 14.7394 17.8384 16.2594 16.8723C16.2853 16.1725 16.3502 15.5743 16.3916 14.9156C15.7655 15.5276 14.6782 16.3818 14.0341 15.3187C13.5478 14.5155 13.545 12.4824 13.7036 10.7151C14.7252 10.6301 15.787 10.6462 16.8101 10.7151C16.8749 9.46247 17.0606 8.09683 16.8982 6.85966C16.684 5.22635 15.9166 4.80316 15.1357 4.96046ZM16.039 9.33377H13.8137C13.8842 7.99762 14.3444 6.52898 15.0696 6.45659C15.7521 6.38844 16.2407 7.11103 16.039 9.33377V9.33377ZM11.5446 5.1906C10.7428 4.40388 9.76559 5.34298 9.34188 6.23628C9.34342 6.2756 9.33179 6.28096 9.3193 6.28387C9.32649 6.26801 9.33436 6.25214 9.34188 6.23628C9.34181 6.23298 9.34167 6.2297 9.34146 6.22645C9.34856 5.84236 9.40031 5.57468 9.4075 5.1906H8.59233C8.25263 11.0936 7.84979 16.8314 7.42471 22.5114H8.37205C8.50918 20.2993 8.59969 17.9655 8.79071 15.8938C9.00706 18.0728 10.4198 17.6565 11.0159 16.8146C12.2458 15.0772 13.1945 6.80917 11.5446 5.1906V5.1906ZM10.7956 14.9156C10.2887 16.3177 9.04264 16.2967 8.94486 13.9372C8.90235 12.9108 9.04872 11.8345 9.12126 10.7725C9.1944 9.69752 9.24718 8.66614 9.31939 7.72257C9.81863 6.13037 11.2857 5.93799 11.4345 8.58571C11.5636 10.8844 11.2153 13.7544 10.7956 14.9156V14.9156ZM35.0524 0.0115759C34.9712 1.87101 34.8627 3.65917 34.722 5.36309C32.3982 3.44177 30.9731 7.90758 30.9987 13.4195C31.0038 14.4855 31.074 15.5426 31.3291 16.2967C31.7691 17.5958 33.0286 17.907 33.6646 16.8144C33.7876 16.603 33.9134 16.2183 33.995 15.9515C34.0563 15.7506 34.1536 15.2244 34.1713 15.3759C34.1377 15.9598 34.0878 16.5009 34.0833 17.1596H34.9425C35.1082 10.9552 35.6201 5.65601 36 0.0113525H35.0525V0.0115759H35.0524ZM32.9374 15.8362C32.2997 15.872 31.9826 14.841 31.968 13.1317C31.9426 10.1381 32.4453 6.81229 33.4662 6.51401C33.9415 6.37525 34.2857 6.66393 34.6339 6.97451C34.3141 10.3372 34.4295 15.7526 32.9374 15.8362V15.8362ZM24.7636 5.1906C24.717 5.87431 24.6454 6.493 24.5874 7.147C25.1464 6.78079 26.8872 5.65825 27.055 7.60728C27.1107 8.2548 27.0146 8.94276 26.9448 9.44884C25.3707 9.05939 24.0877 9.74243 23.7501 12.6712C23.5241 14.633 23.7755 16.5635 24.2569 17.1024C25.1842 18.1401 26.312 16.9514 26.7024 15.3187C26.6619 15.8838 26.6235 16.4551 26.6365 17.1598H27.4516C27.4603 15.1208 27.5739 13.4702 27.6939 11.6354C27.7962 10.0729 27.9888 8.52605 27.9583 7.147C27.8882 3.98873 25.8849 5.10592 24.7636 5.1906V5.1906ZM26.3058 14.858C25.8176 16.1063 24.4472 16.4609 24.5874 13.4769C24.7037 10.9986 25.737 10.472 26.8565 10.8297C26.7733 12.1855 26.6779 13.9068 26.3058 14.858V14.858Z" fill="#EEEEEE"/>
</svg>
