<svg width="30" height="23" viewBox="0 0 30 23" fill="none" xmlns="http://www.w3.org/2000/svg">
<path d="M0.0386061 12.3171C-0.278075 7.91927 1.36731 3.41968 4.46632 0.280894C4.88968 -0.130347 5.63026 -0.0767063 6.01834 0.357155C6.48814 0.755736 6.49642 1.55368 6.03874 1.96492C3.45375 4.64999 2.05593 8.44098 2.33397 12.1634C2.53293 15.2557 3.86494 18.2514 5.99836 20.4953C6.20224 20.6949 6.3697 20.9497 6.38416 21.2432C6.47038 21.9783 5.70208 22.6581 4.98304 22.4995C4.72486 22.4548 4.50988 22.2889 4.33804 22.0994C1.82271 19.4724 0.277887 15.9456 0.0386061 12.3171V12.3171Z" fill="white"/>
<path d="M4.35138 12.4257C3.9849 9.0564 5.22685 5.55779 7.63441 3.17344C8.05999 2.8009 8.75588 2.84734 9.13838 3.26128C9.60032 3.63881 9.65222 4.39985 9.23336 4.82765C7.72837 6.35423 6.77269 8.418 6.61633 10.558C6.40075 13.1568 7.38679 15.812 9.21782 17.6624C9.66896 18.0891 9.61748 18.8839 9.13766 19.2681C8.74694 19.6819 8.03227 19.7163 7.61839 19.319C5.78341 17.4851 4.6161 15.0051 4.35138 12.4257V12.4257Z" fill="white"/>
<path d="M8.60669 11.9278C8.39549 9.8015 9.20975 7.60345 10.7496 6.12391C11.1713 5.71879 11.897 5.76571 12.2872 6.19243C12.7548 6.57991 12.7863 7.35643 12.348 7.77757C11.4919 8.61157 10.9508 9.76676 10.8856 10.9628C10.7889 12.3203 11.325 13.6937 12.279 14.6577C12.5453 14.8947 12.709 15.2467 12.6665 15.6072C12.6077 16.4439 11.4908 17.0249 10.8203 16.4484C9.55793 15.2845 8.77583 13.6313 8.60669 11.9278V11.9278Z" fill="white"/>
<path d="M12.5801 11.6001C12.3502 10.2299 13.4816 8.83922 14.8711 8.79506C16.2335 8.66798 17.5263 9.87063 17.4964 11.238C17.539 12.4672 16.5192 13.6064 15.2967 13.7142C14.0132 13.8894 12.7282 12.8856 12.5801 11.6001V11.6001ZM29.9615 10.2057C30.2781 14.6035 28.6327 19.1031 25.5338 22.2419C25.1103 22.6531 24.3698 22.5995 23.9818 22.1656C23.512 21.767 23.5037 20.9691 23.9614 20.5578C26.5463 17.8728 27.9441 14.0817 27.6661 10.3593C27.4672 7.26692 26.1351 4.27129 24.0017 2.02735C23.7977 1.82779 23.6303 1.57297 23.6159 1.27951C23.5296 0.544443 24.2978 -0.135419 25.017 0.0232218C25.2751 0.067982 25.4902 0.233762 25.662 0.423363C28.1774 3.05041 29.7222 6.57722 29.9615 10.2057V10.2057Z" fill="white"/>
<path d="M25.6489 10.0969C26.0154 13.4662 24.7735 16.9648 22.3659 19.3491C21.9403 19.7216 21.2444 19.6753 20.862 19.2613C20.3999 18.8837 20.348 18.1226 20.7669 17.6949C22.2719 16.1684 23.2276 14.1045 23.384 11.9645C23.5996 9.36573 22.6135 6.71048 20.7824 4.86008C20.3313 4.43336 20.3828 3.63859 20.8626 3.25447C21.2533 2.84053 21.968 2.80621 22.3819 3.20359C24.2168 5.0375 25.3842 7.51748 25.6489 10.0969V10.0969Z" fill="white"/>
<path d="M21.3936 10.5948C21.6048 12.7211 20.7906 14.9192 19.2507 16.3988C18.8291 16.8039 18.1034 16.757 17.7132 16.3302C17.2455 15.9428 17.214 15.1663 17.6523 14.745C18.5085 13.9111 19.0495 12.7559 19.1147 11.5598C19.2114 10.2023 18.6753 8.82886 17.7213 7.86496C17.4549 7.62784 17.2913 7.27582 17.3339 6.9154C17.3925 6.07864 18.5095 5.49777 19.1799 6.0742C20.4423 7.23826 21.2244 8.89138 21.3936 10.5948V10.5948Z" fill="white"/>
</svg>
