<svg width="37" height="23" viewBox="0 0 37 23" fill="none" xmlns="http://www.w3.org/2000/svg">
<path fill-rule="evenodd" clip-rule="evenodd" d="M18.5001 19.5266C19.6491 18.4785 20.5662 17.2018 21.1929 15.7784C21.8195 14.3551 22.1417 12.8164 22.1389 11.2612C22.1418 9.70605 21.8195 8.16742 21.1929 6.74405C20.5663 5.32068 19.6491 4.04399 18.5001 2.99587C16.5355 1.20249 13.9293 0.109619 11.0694 0.109619C4.9561 0.109619 0 5.10231 0 11.2612C0 17.42 4.9561 22.4129 11.0694 22.4129C13.9293 22.4129 16.5357 21.32 18.5001 19.5266Z" fill="#EEEEEE"/>
<path fill-rule="evenodd" clip-rule="evenodd" d="M25.9304 0.109619C23.0705 0.109619 20.4639 1.20249 18.4996 2.99587C18.099 3.36189 17.7255 3.75649 17.382 4.17655H19.6164C19.9232 4.55148 20.2053 4.94594 20.4609 5.35743H16.5382C16.302 5.73795 16.0889 6.13229 15.9 6.53831H21.0981C21.277 6.92261 21.4339 7.31681 21.5678 7.719H15.4312C15.3026 8.10637 15.1953 8.50053 15.1099 8.89968H21.8894C22.0554 9.6759 22.1389 10.4675 22.1386 11.2612C22.1386 12.4993 21.9377 13.6904 21.568 14.8033H15.4312C15.5647 15.2056 15.7212 15.5999 15.9 15.9842H21.0981C20.9095 16.3902 20.6967 16.7846 20.4607 17.1651H16.5382C16.7935 17.5765 17.0754 17.971 17.3818 18.3459H19.6164C19.2734 18.7662 18.9001 19.1609 18.4996 19.5268C20.4639 21.3202 23.0705 22.4131 25.9304 22.4131C32.0435 22.4131 36.9998 17.4202 36.9998 11.2614C36.9998 5.10231 32.0435 0.109619 25.9304 0.109619Z" fill="white"/>
<path fill-rule="evenodd" clip-rule="evenodd" d="M35.5266 17.4774C35.5266 17.2784 35.6866 17.1171 35.8844 17.1171C36.0818 17.1171 36.2417 17.2784 36.2417 17.4774C36.2417 17.676 36.0818 17.8373 35.8844 17.8373C35.7892 17.837 35.6981 17.7989 35.631 17.7314C35.5639 17.6639 35.5264 17.5726 35.5266 17.4774ZM35.8842 17.7507C36.0341 17.7507 36.1557 17.6287 36.1557 17.4772C36.1557 17.3257 36.0341 17.2033 35.8842 17.2033C35.7339 17.2033 35.6122 17.3257 35.6122 17.4772C35.6122 17.6287 35.7341 17.7507 35.8842 17.7507ZM35.8359 17.6352H35.7626V17.3184H35.8955C35.9229 17.3184 35.951 17.3192 35.9754 17.3346C35.988 17.3435 35.9982 17.3554 36.0052 17.3692C36.0122 17.383 36.0158 17.3983 36.0155 17.4137C36.0155 17.4493 35.9947 17.4829 35.9611 17.4956L36.0191 17.635H35.9376L35.8897 17.5098H35.8361V17.6352V17.456H35.8767C35.8913 17.456 35.9079 17.4568 35.9212 17.4495C35.927 17.4455 35.9318 17.44 35.9351 17.4337C35.9383 17.4273 35.9399 17.4203 35.9398 17.4131C35.9395 17.4068 35.9378 17.4005 35.9347 17.395C35.9316 17.3894 35.9272 17.3847 35.922 17.3811C35.9093 17.3734 35.8887 17.3754 35.8749 17.3754H35.8363V17.6352H35.8359Z" fill="white"/>
<path fill-rule="evenodd" clip-rule="evenodd" d="M33.1852 13.678C33.1852 13.4791 33.3452 13.3177 33.5426 13.3177C33.74 13.3177 33.9 13.4791 33.9 13.678C33.9 13.877 33.74 14.038 33.5426 14.038C33.3452 14.038 33.1852 13.8768 33.1852 13.678ZM33.5424 13.9514C33.6923 13.9514 33.814 13.8289 33.814 13.6779C33.814 13.5264 33.6923 13.4039 33.5424 13.4039C33.3921 13.4039 33.2709 13.5264 33.2709 13.6779C33.2709 13.8289 33.3923 13.9514 33.5424 13.9514ZM33.4942 13.8359H33.4208V13.5194H33.5537C33.5812 13.5194 33.6097 13.5198 33.6336 13.5357C33.6462 13.5445 33.6565 13.5563 33.6635 13.57C33.6705 13.5837 33.674 13.599 33.6737 13.6144C33.6737 13.6504 33.6532 13.6836 33.6194 13.6962L33.6773 13.8357H33.5962L33.548 13.7105H33.4944V13.8359V13.6567H33.5349C33.5499 13.6567 33.5666 13.6579 33.5794 13.6506C33.5852 13.6465 33.59 13.641 33.5932 13.6347C33.5964 13.6283 33.5981 13.6213 33.598 13.6142C33.5979 13.6077 33.5962 13.6014 33.5931 13.5958C33.59 13.5901 33.5856 13.5853 33.5802 13.5817C33.5675 13.5744 33.547 13.576 33.5335 13.576H33.4946V13.8359H33.4942ZM9.68628 14.038H8.30862L9.12738 9.69181L7.24225 14.038H5.98601L5.7564 9.71673L4.93507 14.038H3.68457L4.75312 8.38435H6.90287L7.01659 11.8845L8.5323 8.38435H10.7724L9.68628 14.038ZM25.0828 13.9816C24.7059 14.0858 24.4112 14.1307 24.0928 14.1307C23.3879 14.1307 23.0031 13.7746 23.0031 13.1211C23.0031 12.9918 23.0173 12.8541 23.0436 12.7086L23.1275 12.2591L23.192 11.8952L23.8306 8.38416H25.2007L25.0021 9.44005H25.7052L25.5163 10.5578H24.8103L24.4472 12.4762C24.4337 12.5389 24.4259 12.6026 24.4237 12.6667C24.4237 12.9042 24.5663 13.0074 24.8938 13.0074C25.0506 13.0074 25.1722 12.9932 25.2654 12.9645L25.0828 13.9816ZM29.1066 9.47782C28.9912 9.43194 28.9641 9.43194 28.9506 9.42818C28.8776 9.41196 28.8387 9.40247 28.8319 9.40128C28.7862 9.39328 28.7398 9.38944 28.6933 9.38981C28.241 9.38981 27.9149 9.59272 27.4932 10.1364L27.6149 9.43965H26.3671L25.5274 14.0378H26.9061C27.3993 11.2257 27.6105 10.7333 28.2719 10.7333C28.3217 10.7333 28.3793 10.7372 28.4461 10.7449L28.6071 10.778L29.1066 9.47782ZM19.6214 10.8927C19.6214 11.4735 19.9464 11.8736 20.6829 12.1742C21.2473 12.4052 21.3345 12.4728 21.3345 12.6817C21.3345 12.9679 21.0857 13.097 20.5345 13.097C20.1184 13.097 19.7318 13.0406 19.2854 12.9151L19.0942 13.9757L19.1559 13.9862L19.4112 14.0332C19.4935 14.0475 19.6147 14.0611 19.7755 14.0734C20.107 14.0993 20.3635 14.1116 20.5442 14.1116C22.0148 14.1116 22.6942 13.626 22.6942 12.5773C22.6942 11.9462 22.4102 11.5762 21.7119 11.2975C21.1274 11.0647 21.0598 11.0131 21.0598 10.7985C21.0598 10.5507 21.2916 10.4234 21.7419 10.4234C22.0158 10.4234 22.3892 10.4493 22.7434 10.4924L22.942 9.42798C22.5812 9.37854 22.0338 9.338 21.7156 9.338C20.1564 9.33819 19.6167 10.0446 19.6214 10.8927ZM14.165 14.038H13.0201L13.0468 13.5614C12.6981 13.9387 12.2334 14.1175 11.6017 14.1175C10.8551 14.1175 10.3427 13.6053 10.3427 12.8617C10.3427 11.7415 11.2328 11.0887 12.7628 11.0887C12.9196 11.0887 13.1188 11.1011 13.3241 11.1241C13.3668 10.973 13.3784 10.9077 13.3784 10.8254C13.3784 10.5211 13.1381 10.4071 12.4948 10.4071C12.1014 10.4071 11.6569 10.457 11.3499 10.5353L11.1591 10.5841L11.0355 10.6138L11.2265 9.58007C11.9134 9.40287 12.3667 9.33582 12.8759 9.33582C14.06 9.33582 14.6857 9.80295 14.6857 10.6846C14.6857 10.9115 14.6649 11.0837 14.5738 11.5955L14.2858 13.2267L14.2374 13.5194L14.2021 13.7532L14.1786 13.9132L14.165 14.038ZM13.1599 11.9895C13.0578 11.9768 12.9549 11.9704 12.852 11.9705C12.0712 11.9705 11.6756 12.2057 11.6756 12.67C11.6756 12.9562 11.8687 13.1389 12.1699 13.1389C12.7315 13.1391 13.1362 12.6694 13.1599 11.9895ZM18.6846 13.9387C18.2245 14.0636 17.7497 14.1263 17.2729 14.1252C15.7327 14.124 14.9299 13.4176 14.9299 12.0652C14.9299 10.4868 15.9512 9.32475 17.3376 9.32475C18.4718 9.32475 19.196 9.97561 19.196 10.9961C19.196 11.3349 19.1466 11.6652 19.0269 12.1313H16.2876C16.2793 12.179 16.2748 12.2273 16.2744 12.2757C16.2744 12.8087 16.6828 13.0806 17.4829 13.0806C17.975 13.0806 18.4198 12.9906 18.9136 12.7897L18.6846 13.9387ZM17.9509 11.2028C17.9584 11.107 17.9623 11.0287 17.9623 10.9682C17.9623 10.5948 17.7209 10.3757 17.3107 10.3757C16.8724 10.3757 16.559 10.6696 16.4318 11.2L17.9509 11.2028ZM33.3892 11.9533C33.1829 13.4828 32.1226 14.1612 30.7131 14.1612C29.1545 14.1612 28.525 13.2087 28.525 12.0417C28.525 10.4121 29.5912 9.30794 31.2378 9.30794C32.6671 9.30794 33.4259 10.2159 33.4259 11.3831C33.4259 11.6671 33.4255 11.6859 33.3892 11.9533ZM31.9704 11.3649C31.9704 10.884 31.7765 10.4299 31.2117 10.4299C30.5086 10.4299 30.073 11.267 30.073 12.0061C30.073 12.6295 30.3716 13.0484 30.864 13.0395C31.1627 13.0395 31.7995 12.6297 31.9255 11.9139C31.9549 11.747 31.9704 11.5639 31.9704 11.3649Z" fill="#9E9E9E"/>
</svg>
