<svg width="33" height="21" viewBox="0 0 33 21" fill="none" xmlns="http://www.w3.org/2000/svg">
<path d="M21.1969 18.123H12.4475V2.39917H21.197L21.1969 18.123Z" fill="#EEEEEE"/>
<path d="M32.9998 10.2612C32.9998 15.7841 28.5234 20.2612 23.0011 20.2612C20.7591 20.2645 18.5815 19.5112 16.8208 18.1231C19.147 16.2921 20.6405 13.451 20.6405 10.2612C20.6405 7.0715 19.147 4.23037 16.8208 2.39932C18.5815 1.01131 20.759 0.257987 23.001 0.261241C28.5232 0.261241 32.9997 4.73832 32.9997 10.2612" fill="white"/>
<path d="M13.0021 10.2612C13.0021 7.07166 14.4956 4.23037 16.8211 2.39932C15.0608 1.01127 12.8835 0.257929 10.6418 0.261241C5.1195 0.261241 0.643066 4.73832 0.643066 10.2612C0.643066 15.7841 5.1195 20.2612 10.6418 20.2612C12.8836 20.2646 15.0609 19.5112 16.8213 18.1231C14.4959 16.2924 13.0021 13.451 13.0021 10.2612Z" fill="#9E9E9E"/>
</svg>
