<svg width="50" height="16" viewBox="0 0 50 16" fill="none" xmlns="http://www.w3.org/2000/svg">
<path d="M17.7537 15.7394L20.28 0.918756H24.3193L21.7923 15.7394H17.7537ZM36.3679 1.24389C35.2087 0.823973 33.9841 0.613265 32.7512 0.621574C28.7648 0.621574 25.9564 2.62919 25.9322 5.50711C25.9103 7.63418 27.9375 8.82056 29.468 9.52832C31.0385 10.2542 31.5663 10.717 31.5588 11.365C31.549 12.3571 30.3043 12.81 29.1451 12.81C27.53 12.81 26.6725 12.5832 25.3469 12.0335L24.8275 11.7983L24.2611 15.1118C25.2033 15.5246 26.9462 15.8831 28.755 15.9012C32.9962 15.9012 35.7494 13.917 35.7811 10.844C35.7963 9.16006 34.7225 7.87839 32.3936 6.82204C30.9834 6.1415 30.1198 5.68025 30.1289 4.98685C30.1289 4.3721 30.8601 3.71428 32.4397 3.71428C33.4746 3.69111 34.503 3.88427 35.459 4.28139L35.8205 4.45226L36.3679 1.24389ZM46.7454 0.918756H43.6376C42.675 0.918756 41.9544 1.18191 41.5317 2.14223L35.5581 15.6638H39.8099C39.8099 15.6638 40.4905 13.8656 40.647 13.4709L45.7412 13.477C45.8599 13.9881 46.2252 15.6638 46.2252 15.6638H49.9999L46.7454 0.918756ZM41.8039 10.4463C42.1374 9.59336 43.4115 6.30861 43.4115 6.30861C43.3873 6.34793 43.7427 5.45113 43.9461 4.89536L44.2191 6.17178C44.2191 6.17178 44.9919 9.70527 45.1529 10.4463H41.8039ZM14.326 0.918756L10.3849 10.99L9.96526 8.94308C9.23179 6.58387 6.94594 4.02808 4.39014 2.74866L7.99398 15.6638L12.2526 15.6592L18.59 0.918756H14.3064" fill="url(#paint0_linear_3_2563)"/>
<path d="M6.53014 0.918311H0.0521702L0 1.22605C5.0617 2.45178 8.41068 5.41289 9.80124 8.96984L8.38648 2.16445C8.14225 1.22758 7.43451 0.947798 6.55813 0.915283" fill="url(#paint1_linear_3_2563)"/>
<defs>
<linearGradient id="paint0_linear_3_2563" x1="27.195" y1="0.621338" x2="27.195" y2="15.9012" gradientUnits="userSpaceOnUse">
<stop stop-color="white"/>
<stop offset="1" stop-color="white" stop-opacity="0.75"/>
</linearGradient>
<linearGradient id="paint1_linear_3_2563" x1="4.90062" y1="0.915283" x2="4.90062" y2="8.96984" gradientUnits="userSpaceOnUse">
<stop stop-color="white"/>
<stop offset="1" stop-color="white" stop-opacity="0.75"/>
</linearGradient>
</defs>
</svg>
