<svg width="171" height="23" viewBox="0 0 171 23" fill="none" xmlns="http://www.w3.org/2000/svg">
<path d="M1.40909 17V5.36364H5.34091C6.25379 5.36364 7 5.52841 7.57955 5.85795C8.16288 6.18371 8.5947 6.625 8.875 7.18182C9.1553 7.73864 9.29545 8.35985 9.29545 9.04545C9.29545 9.73106 9.1553 10.3542 8.875 10.9148C8.59849 11.4754 8.17046 11.9223 7.59091 12.2557C7.01136 12.5852 6.26894 12.75 5.36364 12.75H2.54545V11.5H5.31818C5.94318 11.5 6.44508 11.392 6.82386 11.1761C7.20265 10.9602 7.47727 10.6686 7.64773 10.3011C7.82197 9.92992 7.90909 9.51136 7.90909 9.04545C7.90909 8.57955 7.82197 8.16288 7.64773 7.79545C7.47727 7.42803 7.20076 7.14015 6.81818 6.93182C6.43561 6.7197 5.92803 6.61364 5.29545 6.61364H2.81818V17H1.40909ZM10.8551 17H9.37784L13.6506 5.36364H15.1051L19.3778 17H17.9006L14.4233 7.20455H14.3324L10.8551 17ZM11.4006 12.4545H17.3551V13.7045H11.4006V12.4545ZM19.0028 5.36364H20.6165L23.8438 10.7955H23.9801L27.2074 5.36364H28.821L24.6165 12.2045V17H23.2074V12.2045L19.0028 5.36364ZM86.3835 11.1818C86.3835 12.4091 86.1619 13.4697 85.7188 14.3636C85.2756 15.2576 84.6676 15.947 83.8949 16.4318C83.1222 16.9167 82.2396 17.1591 81.2472 17.1591C80.2547 17.1591 79.3722 16.9167 78.5994 16.4318C77.8267 15.947 77.2188 15.2576 76.7756 14.3636C76.3324 13.4697 76.1108 12.4091 76.1108 11.1818C76.1108 9.95455 76.3324 8.89394 76.7756 8C77.2188 7.10606 77.8267 6.41667 78.5994 5.93182C79.3722 5.44697 80.2547 5.20455 81.2472 5.20455C82.2396 5.20455 83.1222 5.44697 83.8949 5.93182C84.6676 6.41667 85.2756 7.10606 85.7188 8C86.1619 8.89394 86.3835 9.95455 86.3835 11.1818ZM85.0199 11.1818C85.0199 10.1742 84.8513 9.32386 84.5142 8.63068C84.1809 7.9375 83.7282 7.41288 83.1562 7.05682C82.5881 6.70076 81.9517 6.52273 81.2472 6.52273C80.5426 6.52273 79.9044 6.70076 79.3324 7.05682C78.7642 7.41288 78.3116 7.9375 77.9744 8.63068C77.6411 9.32386 77.4744 10.1742 77.4744 11.1818C77.4744 12.1894 77.6411 13.0398 77.9744 13.733C78.3116 14.4261 78.7642 14.9508 79.3324 15.3068C79.9044 15.6629 80.5426 15.8409 81.2472 15.8409C81.9517 15.8409 82.5881 15.6629 83.1562 15.3068C83.7282 14.9508 84.1809 14.4261 84.5142 13.733C84.8513 13.0398 85.0199 12.1894 85.0199 11.1818ZM97.9801 5.36364V17H96.6165L90.2756 7.86364H90.1619V17H88.7528V5.36364H90.1165L96.4801 14.5227H96.5938V5.36364H97.9801ZM100.8 17V5.36364H102.209V15.75H107.618V17H100.8ZM111.209 5.36364V17H109.8V5.36364H111.209ZM123.261 5.36364V17H121.898L115.557 7.86364H115.443V17H114.034V5.36364H115.398L121.761 14.5227H121.875V5.36364H123.261ZM126.081 17V5.36364H133.104V6.61364H127.49V10.5455H132.74V11.7955H127.49V15.75H133.195V17H126.081Z" fill="#959595"/>
<path d="M40.5128 9.4375H38.0241C37.9787 9.11553 37.8859 8.82955 37.7457 8.57955C37.6056 8.32576 37.4257 8.10985 37.206 7.93182C36.9863 7.75379 36.7325 7.61742 36.4446 7.52273C36.1605 7.42803 35.8518 7.38068 35.5185 7.38068C34.9162 7.38068 34.3916 7.5303 33.9446 7.82955C33.4976 8.125 33.151 8.55682 32.9048 9.125C32.6586 9.68939 32.5355 10.375 32.5355 11.1818C32.5355 12.0114 32.6586 12.7083 32.9048 13.2727C33.1548 13.8371 33.5033 14.2633 33.9503 14.5511C34.3973 14.839 34.9143 14.983 35.5014 14.983C35.831 14.983 36.1359 14.9394 36.4162 14.8523C36.7003 14.7652 36.9522 14.6383 37.1719 14.4716C37.3916 14.3011 37.5734 14.0947 37.7173 13.8523C37.8651 13.6098 37.9673 13.3333 38.0241 13.0227L40.5128 13.0341C40.4484 13.5682 40.2874 14.0833 40.0298 14.5795C39.776 15.072 39.4332 15.5133 39.0014 15.9034C38.5734 16.2898 38.062 16.5966 37.4673 16.8239C36.8764 17.0473 36.2079 17.1591 35.4616 17.1591C34.4238 17.1591 33.4957 16.9242 32.6776 16.4545C31.8632 15.9848 31.2192 15.3049 30.7457 14.4148C30.276 13.5246 30.0412 12.447 30.0412 11.1818C30.0412 9.91288 30.2798 8.83333 30.7571 7.94318C31.2344 7.05303 31.8821 6.375 32.7003 5.90909C33.5185 5.43939 34.4389 5.20455 35.4616 5.20455C36.1359 5.20455 36.7609 5.29924 37.3366 5.48864C37.9162 5.67803 38.4295 5.95455 38.8764 6.31818C39.3234 6.67803 39.687 7.11932 39.9673 7.64205C40.2514 8.16477 40.4332 8.76326 40.5128 9.4375ZM44.0639 17H41.4276L45.4446 5.36364H48.6151L52.6264 17H49.9901L47.0753 8.02273H46.9844L44.0639 17ZM43.8991 12.4261H50.1264V14.3466H43.8991V12.4261ZM54.027 17V5.36364H58.6179C59.4967 5.36364 60.2467 5.52083 60.8679 5.83523C61.4929 6.14583 61.9683 6.58712 62.294 7.15909C62.6236 7.72727 62.7884 8.39583 62.7884 9.16477C62.7884 9.9375 62.6217 10.6023 62.2884 11.1591C61.955 11.7121 61.4721 12.1364 60.8395 12.4318C60.2107 12.7273 59.4493 12.875 58.5554 12.875H55.4815V10.8977H58.1577C58.6274 10.8977 59.0175 10.8333 59.3281 10.7045C59.6387 10.5758 59.8698 10.3826 60.0213 10.125C60.1766 9.86742 60.2543 9.54735 60.2543 9.16477C60.2543 8.77841 60.1766 8.45265 60.0213 8.1875C59.8698 7.92235 59.6368 7.72159 59.3224 7.58523C59.0118 7.44508 58.6198 7.375 58.1463 7.375H56.4872V17H54.027ZM60.3111 11.7045L63.2031 17H60.4872L57.6577 11.7045H60.3111ZM68.652 17H64.527V5.36364H68.6861C69.8565 5.36364 70.8641 5.59659 71.7088 6.0625C72.5535 6.52462 73.2031 7.18939 73.6577 8.05682C74.116 8.92424 74.3452 9.96212 74.3452 11.1705C74.3452 12.3826 74.116 13.4242 73.6577 14.2955C73.2031 15.1667 72.5497 15.8352 71.6974 16.3011C70.849 16.767 69.8338 17 68.652 17ZM66.9872 14.892H68.5497C69.277 14.892 69.8887 14.7633 70.3849 14.5057C70.8849 14.2443 71.2599 13.8409 71.5099 13.2955C71.7637 12.7462 71.8906 12.0379 71.8906 11.1705C71.8906 10.3106 71.7637 9.60795 71.5099 9.0625C71.2599 8.51705 70.8868 8.11553 70.3906 7.85795C69.8944 7.60038 69.2827 7.47159 68.5554 7.47159H66.9872V14.892Z" fill="white"/>
<path d="M141.039 12.3171C140.722 7.91927 142.367 3.41968 145.466 0.280894C145.89 -0.130347 146.63 -0.0767063 147.018 0.357155C147.488 0.755736 147.496 1.55368 147.039 1.96492C144.454 4.64999 143.056 8.44098 143.334 12.1634C143.533 15.2557 144.865 18.2514 146.998 20.4953C147.202 20.6949 147.37 20.9497 147.384 21.2432C147.47 21.9783 146.702 22.6581 145.983 22.4995C145.725 22.4548 145.51 22.2889 145.338 22.0994C142.823 19.4724 141.278 15.9456 141.039 12.3171V12.3171Z" fill="white"/>
<path d="M145.351 12.4257C144.985 9.0564 146.227 5.55779 148.634 3.17344C149.06 2.8009 149.756 2.84734 150.138 3.26128C150.6 3.63881 150.652 4.39985 150.233 4.82765C148.728 6.35423 147.773 8.418 147.616 10.558C147.401 13.1568 148.387 15.812 150.218 17.6624C150.669 18.0891 150.617 18.8839 150.138 19.2681C149.747 19.6819 149.032 19.7163 148.618 19.319C146.783 17.4851 145.616 15.0051 145.351 12.4257V12.4257Z" fill="white"/>
<path d="M149.607 11.9278C149.395 9.8015 150.21 7.60345 151.75 6.12391C152.171 5.71879 152.897 5.76571 153.287 6.19243C153.755 6.57991 153.786 7.35643 153.348 7.77757C152.492 8.61157 151.951 9.76676 151.886 10.9628C151.789 12.3203 152.325 13.6937 153.279 14.6577C153.545 14.8947 153.709 15.2467 153.666 15.6072C153.608 16.4439 152.491 17.0249 151.82 16.4484C150.558 15.2845 149.776 13.6313 149.607 11.9278V11.9278Z" fill="white"/>
<path d="M153.58 11.6001C153.35 10.2299 154.482 8.83922 155.871 8.79506C157.234 8.66798 158.526 9.87063 158.496 11.238C158.539 12.4672 157.519 13.6064 156.297 13.7142C155.013 13.8894 153.728 12.8856 153.58 11.6001V11.6001ZM170.962 10.2057C171.278 14.6035 169.633 19.1031 166.534 22.2419C166.11 22.6531 165.37 22.5995 164.982 22.1656C164.512 21.767 164.504 20.9691 164.961 20.5578C167.546 17.8728 168.944 14.0817 168.666 10.3593C168.467 7.26692 167.135 4.27129 165.002 2.02735C164.798 1.82779 164.63 1.57297 164.616 1.27951C164.53 0.544443 165.298 -0.135419 166.017 0.0232218C166.275 0.067982 166.49 0.233762 166.662 0.423363C169.177 3.05041 170.722 6.57722 170.962 10.2057V10.2057Z" fill="white"/>
<path d="M166.649 10.0969C167.015 13.4662 165.773 16.9648 163.366 19.3491C162.94 19.7216 162.244 19.6753 161.862 19.2613C161.4 18.8837 161.348 18.1226 161.767 17.6949C163.272 16.1684 164.228 14.1045 164.384 11.9645C164.6 9.36573 163.614 6.71048 161.782 4.86008C161.331 4.43336 161.383 3.63859 161.863 3.25447C162.253 2.84053 162.968 2.80621 163.382 3.20359C165.217 5.0375 166.384 7.51748 166.649 10.0969V10.0969Z" fill="white"/>
<path d="M162.394 10.5948C162.605 12.7211 161.791 14.9192 160.251 16.3988C159.829 16.8039 159.103 16.757 158.713 16.3302C158.245 15.9428 158.214 15.1663 158.652 14.745C159.508 13.9111 160.049 12.7559 160.115 11.5598C160.211 10.2023 159.675 8.82886 158.721 7.86496C158.455 7.62784 158.291 7.27582 158.334 6.9154C158.393 6.07864 159.509 5.49777 160.18 6.0742C161.442 7.23826 162.224 8.89138 162.394 10.5948V10.5948Z" fill="white"/>
</svg>
